<svg xmlns="http://www.w3.org/2000/svg" viewBox="0 0 24 24" fill="none" stroke="currentColor" stroke-width="2" stroke-linecap="round" stroke-linejoin="round">
  <circle cx="12" cy="12" r="3"/>
  <path d="M19.4 15a1.7 1.7 0 0 0 .33 1.82l.06.06a2 2 0 1 1-2.83 2.83l-.06-.06a1.7 1.7 0 0 0-1.82-.33 1.7 1.7 0 0 0-1 1.54V21a2 2 0 1 1-4 0v-.09a1.7 1.7 0 0 0-1-1.54 1.7 1.7 0 0 0-1.82.33l-.06.06a2 2 0 1 1-2.83-2.83l.06-.06A1.7 1.7 0 0 0 4.6 15a1.7 1.7 0 0 0-1.54-1H3a2 2 0 1 1 0-4h.09a1.7 1.7 0 0 0 1.54-1 1.7 1.7 0 0 0-.33-1.82l-.06-.06a2 2 0 1 1 2.83-2.83l.06.06A1.7 1.7 0 0 0 8.95 4.6a1.7 1.7 0 0 0 1-1.54V3a2 2 0 1 1 4 0v.09a1.7 1.7 0 0 0 1 1.54 1.7 1.7 0 0 0 1.82-.33l.06-.06a2 2 0 1 1 2.83 2.83l-.06.06A1.7 1.7 0 0 0 19.4 9c.42.63.65 1.37.65 2.13s-.23 1.5-.65 2.13Z"/>
</svg>
